<svg viewBox="0 0 14 14" fill="none" width="16" height="16" xlmns="http://www.w3.org/2000/svg"><path fill-rule="evenodd" clip-rule="evenodd" d="M7 0C5.09833 0 4.86092 0.00875 4.11425 0.042C3.36875 0.077 2.86125 0.19425 2.415 0.3675C1.95475 0.546 1.56392 0.78575 1.17483 1.17483C0.78575 1.56392 0.545417 1.95417 0.3675 2.415C0.19425 2.86125 0.0764167 3.36875 0.042 4.11425C0.007 4.86092 0 5.09833 0 7C0 8.90167 0.00875 9.13908 0.042 9.88575C0.077 10.6307 0.19425 11.1388 0.3675 11.585C0.546 12.0447 0.78575 12.4361 1.17483 12.8252C1.56392 13.2137 1.95417 13.4546 2.415 13.6325C2.86183 13.8052 3.36933 13.9236 4.11425 13.958C4.86092 13.993 5.09833 14 7 14C8.90167 14 9.13908 13.9912 9.88575 13.958C10.6307 13.923 11.1388 13.8052 11.585 13.6325C12.0447 13.454 12.4361 13.2137 12.8252 12.8252C13.2137 12.4361 13.4546 12.0464 13.6325 11.585C13.8052 11.1388 13.9236 10.6307 13.958 9.88575C13.993 9.13908 14 8.90167 14 7C14 5.09833 13.9912 4.86092 13.958 4.11425C13.923 3.36933 13.8052 2.86067 13.6325 2.415C13.454 1.95475 13.2137 1.56392 12.8252 1.17483C12.4361 0.78575 12.0464 0.545417 11.585 0.3675C11.1388 0.19425 10.6307 0.0764167 9.88575 0.042C9.13908 0.007 8.90167 0 7 0ZM10.7369 4.10372C11.2 4.10372 11.5769 3.72747 11.5769 3.26372C11.5769 2.80055 11.1994 2.42372 10.7369 2.4243C10.2737 2.4243 9.89685 2.80055 9.89685 3.26372C9.89685 3.72689 10.2731 4.10372 10.7369 4.10372ZM3.40552 6.99997C3.40552 5.01547 5.01377 3.40547 7.00002 3.40547C8.98452 3.40547 10.5945 5.01372 10.5945 6.99997C10.5945 8.98447 8.98627 10.5945 7.00002 10.5945C5.01552 10.5945 3.40552 8.98622 3.40552 6.99997ZM7.00002 9.33337C5.71086 9.33337 4.66669 8.2892 4.66669 7.00004C4.66669 5.71087 5.71086 4.6667 7.00002 4.6667C8.28919 4.6667 9.33335 5.71087 9.33335 7.00004C9.33335 8.2892 8.28919 9.33337 7.00002 9.33337Z" fill="currentColor"></path></svg>