<svg viewBox="0 0 512 512" width="14" height="14" xlmns="http://www.w3.org/2000/svg"><path d="m399.7,460.2h-287.4v-215.6h287.3v215.6h0.1zm-234-318c0-49.8 40.5-90.3 90.3-90.3 49.8,0 90.3,40.5 90.3,90.3v61.6h-180.6v-61.6zm254.4,61.6h-32.9v-61.6c-5.68434e-14-72.4-58.9-131.2-131.2-131.2-72.3,0-131.2,58.8-131.2,131.2v61.6h-32.9c-11.3,0-20.4,9.1-20.4,20.4v256.4c0,11.3 9.1,20.4 20.4,20.4h328.1c11.3,0 20.4-9.1 20.4-20.4v-256.4c0.1-11.3-9.1-20.4-20.3-20.4z" fill="rgba(4,4,5,0.5)"></path><path d="m256,420c11.3,0 20.4-9.1 20.4-20.4v-36.7c0-11.3-9.1-20.4-20.4-20.4s-20.4,9.1-20.4,20.4v36.7c2.84217e-14,11.2 9.1,20.4 20.4,20.4z" fill="rgba(4,4,5,0.5)"></path></svg>