<svg viewBox="0 0 23 14" fill="none" width="32" height="32" xlmns="http://www.w3.org/2000/svg" style="margin-left: 5px;"><path d="M14.488 1.42107H8.0909V11.8694H14.488V1.42107Z" fill="#FF5F00"></path><path d="M8.74982 6.64647C8.74903 5.64039 8.9771 4.64731 9.41677 3.74239C9.85645 2.83747 10.4962 2.04441 11.2876 1.42324C10.3074 0.652894 9.13024 0.173864 7.89066 0.0408952C6.65108 -0.0920739 5.3991 0.126382 4.2778 0.671296C3.1565 1.21621 2.21113 2.0656 1.54973 3.12238C0.888326 4.17916 0.537582 5.40071 0.537582 6.6474C0.537582 7.89409 0.888326 9.11563 1.54973 10.1724C2.21113 11.2292 3.1565 12.0786 4.2778 12.6235C5.3991 13.1684 6.65108 13.3869 7.89066 13.2539C9.13024 13.1209 10.3074 12.6419 11.2876 11.8716C10.496 11.2502 9.85605 10.4568 9.41637 9.55158C8.97669 8.64631 8.74875 7.65287 8.74982 6.64647Z" fill="#EB001B"></path><path d="M22.0386 6.6461C22.0386 7.89288 21.6877 9.1145 21.0262 10.1713C20.3647 11.2281 19.4192 12.0775 18.2978 12.6224C17.1763 13.1672 15.9242 13.3855 14.6846 13.2523C13.4449 13.1192 12.2677 12.6399 11.2876 11.8693C12.0787 11.2476 12.7183 10.4543 13.1581 9.54936C13.5978 8.64439 13.8264 7.65135 13.8264 6.64518C13.8264 5.639 13.5978 4.64596 13.1581 3.74099C12.7183 2.83601 12.0787 2.04274 11.2876 1.42101C12.2677 0.650431 13.4449 0.171168 14.6846 0.0380081C15.9242 -0.0951519 17.1763 0.123164 18.2978 0.668C19.4192 1.21284 20.3647 2.06221 21.0262 3.11903C21.6877 4.17585 22.0386 5.39747 22.0386 6.64425V6.6461Z" fill="#F79E1B"></path></svg>