<svg viewBox="0 0 18 12" fill="none" width="20" height="20" xlmns="http://www.w3.org/2000/svg"><path d="M5.07644 11.25C7.88022 11.25 10.1531 8.89939 10.1531 5.99991C10.1531 3.10043 7.88004 0.75 5.07644 0.75C2.27284 0.75 0 3.09972 0 5.99991C0 8.9001 2.27267 11.25 5.07644 11.25Z" fill="currentColor"></path><path d="M13.1839 10.9419C14.5857 10.9419 15.7222 8.72942 15.7222 5.99991C15.7222 3.27111 14.5857 1.0579 13.1839 1.0579C11.7821 1.0579 10.6455 3.27111 10.6455 5.99991C10.6455 8.72871 11.7821 10.9419 13.1839 10.9419Z" fill="currentColor"></path><path d="M17.1072 10.4277C17.6003 10.4277 18 8.44542 18 5.99991C18 3.55458 17.6006 1.57207 17.1074 1.57207C16.6142 1.57207 16.2145 3.55511 16.2145 5.99991C16.2145 8.44471 16.6142 10.4277 17.1072 10.4277Z" fill="currentColor"></path></svg>