<svg viewBox="0 0 13 12" fill="none" width="13.200000000000001" height="13.200000000000001" xlmns="http://www.w3.org/2000/svg"><path fill-rule="evenodd" clip-rule="evenodd" d="M7.16009 0.817683C6.77239 -0.272561 5.23055 -0.272561 4.84284 0.817683C4.59868 1.50426 3.81441 1.82911 3.15629 1.51628C2.11122 1.01951 1.02097 2.10975 1.51774 3.15482C1.83058 3.81295 1.50572 4.59722 0.819148 4.84138C-0.271096 5.22908 -0.271096 6.77092 0.819148 7.15863C1.50572 7.40278 1.83058 8.18706 1.51774 8.84518C1.02097 9.89025 2.11122 10.9805 3.15629 10.4837C3.81441 10.1709 4.59868 10.4957 4.84284 11.1823C5.23055 12.2726 6.77239 12.2726 7.16009 11.1823C7.40425 10.4957 8.18852 10.1709 8.84665 10.4837C9.89172 10.9805 10.982 9.89025 10.4852 8.84518C10.1724 8.18706 10.4972 7.40278 11.1838 7.15863C12.274 6.77092 12.274 5.22908 11.1838 4.84138C10.4972 4.59722 10.1724 3.81295 10.4852 3.15482C10.982 2.10975 9.89172 1.01951 8.84665 1.51628C8.18852 1.82911 7.40425 1.50426 7.16009 0.817683ZM6.00147 7.87565C7.03736 7.87565 7.87712 7.03589 7.87712 6C7.87712 4.96411 7.03736 4.12435 6.00147 4.12435C4.96557 4.12435 4.12582 4.96411 4.12582 6C4.12582 7.03589 4.96557 7.87565 6.00147 7.87565Z" fill="currentColor"></path></svg>