<svg viewBox="0 0 15 16" fill="none" width="13.200000000000001" height="13.200000000000001" xlmns="http://www.w3.org/2000/svg"><path fill-rule="evenodd" clip-rule="evenodd" d="M11.7086 5.2928L7.00146 0.585693L2.29436 5.2928C1.90383 5.68332 1.90383 6.31649 2.29436 6.70701C2.68488 7.09754 3.31805 7.09754 3.70857 6.70701L6.00146 4.41412V11C6.00146 11.5523 6.44918 12 7.00146 12C7.55375 12 8.00146 11.5523 8.00146 11V4.41412L10.2944 6.70701C10.6849 7.09754 11.318 7.09754 11.7086 6.70701C12.0991 6.31649 12.0991 5.68332 11.7086 5.2928ZM1.00146 10C1.55375 10 2.00146 10.4477 2.00146 11V14H12.0015V11C12.0015 10.4477 12.4492 10 13.0015 10C13.5538 10 14.0015 10.4477 14.0015 11V15C14.0015 15.5523 13.5538 16 13.0015 16H1.00146C0.44918 16 0.00146484 15.5523 0.00146484 15V11C0.00146484 10.4477 0.44918 10 1.00146 10Z" fill="currentColor"></path></svg>