<svg viewBox="0 0 29 10" fill="none" width="32" height="32" xlmns="http://www.w3.org/2000/svg" style="margin-left: 5px;"><path fill-rule="evenodd" clip-rule="evenodd" d="M14.7558 2.989C14.7396 4.26906 15.8966 4.9834 16.7682 5.40812C17.6637 5.84394 17.9645 6.12338 17.9611 6.51303C17.9543 7.10948 17.2467 7.37264 16.5845 7.38288C15.4292 7.40081 14.7575 7.071 14.2234 6.8215L13.8073 8.76888C14.3431 9.01588 15.3352 9.23123 16.364 9.24062C18.7789 9.24062 20.3588 8.04856 20.3674 6.20029C20.3768 3.85466 17.1228 3.72475 17.145 2.67626C17.1527 2.35839 17.4561 2.01911 18.1209 1.93282C18.4499 1.88928 19.3582 1.85592 20.3879 2.33015L20.7921 0.446018C20.2384 0.244329 19.5265 0.051178 18.6405 0.051178C16.3675 0.051178 14.7687 1.25946 14.7558 2.989ZM24.6759 0.213525C24.2349 0.213525 23.8632 0.470775 23.6975 0.865544L20.2478 9.10218H22.6609L23.1411 7.77509H26.09L26.3686 9.10218H28.4955L26.6395 0.213525H24.6759ZM25.0134 2.61472L25.7098 5.95243H23.8025L25.0134 2.61472ZM11.83 0.213525L9.92787 9.10218H12.2273L14.1286 0.213525H11.83ZM8.4282 0.213525L6.03469 6.26346L5.06651 1.11931C4.9529 0.545119 4.50427 0.213525 4.00607 0.213525H0.0933129L0.0386047 0.471629C0.841872 0.645927 1.75448 0.927082 2.30733 1.22787C2.64568 1.41156 2.74229 1.5722 2.85335 2.00887L4.68711 9.10218H7.1174L10.843 0.213525H8.4282Z" fill="#1A1F71"></path></svg>