<svg viewBox="0 0 14 14" fill="none" width="14" height="14" xlmns="http://www.w3.org/2000/svg" class="sc-jdXKRJ gNnCOQ"><path fill-rule="evenodd" clip-rule="evenodd" d="M7 0.249979C6.9165 0.249979 6.83335 0.251495 6.75058 0.254501C6.66761 0.245233 6.58409 0.24999 6.50353 0.267959C3.00742 0.522115 0.25 3.43903 0.25 6.99998C0.25 10.5609 3.00742 13.4778 6.50353 13.732C6.58409 13.75 6.66762 13.7547 6.75059 13.7455C6.83335 13.7485 6.9165 13.75 7 13.75C7.08351 13.75 7.16666 13.7485 7.24943 13.7455C7.33241 13.7547 7.41594 13.75 7.49651 13.732C10.9926 13.4778 13.75 10.5609 13.75 6.99998C13.75 3.43904 10.9926 0.522134 7.4965 0.267962C7.41594 0.24999 7.33241 0.245232 7.24943 0.254502C7.16666 0.251495 7.08351 0.249979 7 0.249979ZM7.00001 1.91475C6.59426 2.65531 6.27986 3.43949 6.06177 4.24998H7.93826C7.72016 3.43949 7.40576 2.65531 7.00001 1.91475ZM8.22771 5.74998H5.77231C5.72313 6.16347 5.69824 6.58083 5.69824 6.99998C5.69824 7.41912 5.72313 7.83649 5.77231 8.24998H8.22771C8.27689 7.83649 8.30178 7.41912 8.30178 6.99998C8.30178 6.58083 8.27689 6.16347 8.22771 5.74998ZM9.73696 8.24998C9.78002 7.83594 9.80178 7.41874 9.80178 6.99998C9.80178 6.58122 9.78002 6.16402 9.73696 5.74998H12.1003C12.1981 6.15059 12.25 6.56923 12.25 6.99998C12.25 7.43073 12.1981 7.84937 12.1003 8.24998H9.73696ZM7.93826 9.74998H6.06177C6.27986 10.5605 6.59426 11.3446 7.00001 12.0852C7.40576 11.3446 7.72016 10.5605 7.93826 9.74998ZM8.73906 11.9551C9.05834 11.245 9.30789 10.5064 9.48469 9.74998H11.473C10.8467 10.7666 9.8835 11.5535 8.73906 11.9551ZM9.48469 4.24998C9.30789 3.49351 9.05834 2.75497 8.73906 2.04486C9.8835 2.4465 10.8467 3.2334 11.473 4.24998H9.48469ZM5.26097 11.9551C4.94169 11.245 4.69214 10.5064 4.51533 9.74998H2.527C3.15333 10.7666 4.11651 11.5535 5.26097 11.9551ZM4.19824 6.99998C4.19824 6.58122 4.22 6.16402 4.26306 5.74998H1.89972C1.80188 6.15059 1.75 6.56923 1.75 6.99998C1.75 7.43073 1.80188 7.84937 1.89972 8.24998H4.26306C4.22 7.83594 4.19824 7.41874 4.19824 6.99998ZM4.51533 4.24998C4.69214 3.49351 4.94169 2.75496 5.26097 2.04485C4.11651 2.44649 3.15333 3.23339 2.527 4.24998H4.51533Z" fill="currentColor"></path></svg>